<mxfile host="65bd71144e" modified="2020-12-16T07:21:17.047Z" agent="5.0 (Windows NT 10.0; Win64; x64) AppleWebKit/537.36 (KHTML, like Gecko) Code/1.52.0 Chrome/83.0.4103.122 Electron/9.3.5 Safari/537.36" etag="0Bij7Oai631g3hxHYcEI" version="13.10.0" type="embed">
    <diagram id="IYW_riuh-wRbh0G6f3i7" name="第 1 页">
        <mxGraphModel dx="734" dy="437" grid="1" gridSize="10" guides="1" tooltips="1" connect="1" arrows="1" fold="1" page="1" pageScale="1" pageWidth="827" pageHeight="1169" math="0" shadow="0">
            <root>
                <mxCell id="0"/>
                <mxCell id="1" parent="0"/>
                <mxCell id="39" value="" style="strokeWidth=1;shadow=0;dashed=0;align=center;html=1;shape=mxgraph.mockup.containers.rrect;rSize=0;strokeColor=#666666;" parent="1" vertex="1">
                    <mxGeometry x="220" y="190" width="100" height="600" as="geometry"/>
                </mxCell>
                <mxCell id="43" value="..." style="strokeColor=inherit;fillColor=inherit;gradientColor=inherit;strokeWidth=1;shadow=0;dashed=0;align=center;html=1;shape=mxgraph.mockup.containers.rrect;rSize=0;fontSize=17;fontColor=#666666;fontStyle=1;resizeWidth=1;" parent="39" vertex="1">
                    <mxGeometry y="1" width="100" height="39" relative="1" as="geometry">
                        <mxPoint y="-9.3" as="offset"/>
                    </mxGeometry>
                </mxCell>
                <mxCell id="53" value="..." style="strokeColor=inherit;fillColor=inherit;gradientColor=inherit;strokeWidth=1;shadow=0;dashed=0;align=center;html=1;shape=mxgraph.mockup.containers.rrect;rSize=0;fontSize=17;fontColor=#666666;fontStyle=1;resizeWidth=1;" parent="39" vertex="1">
                    <mxGeometry y="109.78" width="100" height="150.22" as="geometry"/>
                </mxCell>
                <mxCell id="69" value="" style="strokeColor=inherit;fillColor=inherit;gradientColor=inherit;strokeWidth=1;shadow=0;dashed=0;align=center;html=1;shape=mxgraph.mockup.containers.rrect;rSize=0;fontSize=17;fontColor=#666666;fontStyle=1;resizeWidth=1;" parent="39" vertex="1">
                    <mxGeometry width="100" height="28.88888888888889" as="geometry"/>
                </mxCell>
                <mxCell id="70" value="" style="strokeColor=inherit;fillColor=inherit;gradientColor=inherit;strokeWidth=1;shadow=0;dashed=0;align=center;html=1;shape=mxgraph.mockup.containers.rrect;rSize=0;fontSize=17;fontColor=#666666;fontStyle=1;resizeWidth=1;" parent="39" vertex="1">
                    <mxGeometry y="28.88888888888889" width="100" height="28.88888888888889" as="geometry"/>
                </mxCell>
                <mxCell id="78" value="" style="strokeColor=inherit;fillColor=inherit;gradientColor=inherit;strokeWidth=1;shadow=0;dashed=0;align=center;html=1;shape=mxgraph.mockup.containers.rrect;rSize=0;fontSize=17;fontColor=#666666;fontStyle=1;resizeWidth=1;" parent="39" vertex="1">
                    <mxGeometry x="-2.2737367544323206e-13" y="57.78" width="100" height="26" as="geometry"/>
                </mxCell>
                <mxCell id="79" value="" style="strokeColor=inherit;fillColor=inherit;gradientColor=inherit;strokeWidth=1;shadow=0;dashed=0;align=center;html=1;shape=mxgraph.mockup.containers.rrect;rSize=0;fontSize=17;fontColor=#666666;fontStyle=1;resizeWidth=1;" parent="39" vertex="1">
                    <mxGeometry x="-2.2737367544323206e-13" y="83.77999999999997" width="100" height="26" as="geometry"/>
                </mxCell>
                <mxCell id="87" value="0x0" style="strokeColor=inherit;fillColor=inherit;gradientColor=inherit;strokeWidth=1;shadow=0;dashed=0;align=center;html=1;shape=mxgraph.mockup.containers.rrect;rSize=0;fontSize=17;fontColor=#666666;fontStyle=1;resizeWidth=1;" parent="39" vertex="1">
                    <mxGeometry y="261.36" width="100" height="28.88888888888889" as="geometry"/>
                </mxCell>
                <mxCell id="88" value="0x0" style="strokeColor=inherit;fillColor=inherit;gradientColor=inherit;strokeWidth=1;shadow=0;dashed=0;align=center;html=1;shape=mxgraph.mockup.containers.rrect;rSize=0;fontSize=17;fontColor=#666666;fontStyle=1;resizeWidth=1;" parent="39" vertex="1">
                    <mxGeometry y="290.2488888888889" width="100" height="28.88888888888889" as="geometry"/>
                </mxCell>
                <mxCell id="89" value="0x0" style="strokeColor=inherit;fillColor=inherit;gradientColor=inherit;strokeWidth=1;shadow=0;dashed=0;align=center;html=1;shape=mxgraph.mockup.containers.rrect;rSize=0;fontSize=17;fontColor=#666666;fontStyle=1;resizeWidth=1;" parent="39" vertex="1">
                    <mxGeometry x="-2.2737367544323206e-13" y="319.14" width="100" height="26" as="geometry"/>
                </mxCell>
                <mxCell id="90" value="0x1" style="strokeColor=inherit;fillColor=inherit;gradientColor=inherit;strokeWidth=1;shadow=0;dashed=0;align=center;html=1;shape=mxgraph.mockup.containers.rrect;rSize=0;fontSize=17;fontColor=#666666;fontStyle=1;resizeWidth=1;" parent="39" vertex="1">
                    <mxGeometry x="-2.2737367544323206e-13" y="345.14" width="100" height="26" as="geometry"/>
                </mxCell>
                <mxCell id="93" value="0x0" style="strokeColor=inherit;fillColor=inherit;gradientColor=inherit;strokeWidth=1;shadow=0;dashed=0;align=center;html=1;shape=mxgraph.mockup.containers.rrect;rSize=0;fontSize=17;fontColor=#666666;fontStyle=1;resizeWidth=1;" parent="39" vertex="1">
                    <mxGeometry y="371.14" width="100" height="28.88888888888889" as="geometry"/>
                </mxCell>
                <mxCell id="94" value="0x0" style="strokeColor=inherit;fillColor=inherit;gradientColor=inherit;strokeWidth=1;shadow=0;dashed=0;align=center;html=1;shape=mxgraph.mockup.containers.rrect;rSize=0;fontSize=17;fontColor=#666666;fontStyle=1;resizeWidth=1;" parent="39" vertex="1">
                    <mxGeometry y="400.0288888888889" width="100" height="28.88888888888889" as="geometry"/>
                </mxCell>
                <mxCell id="95" value="0x0" style="strokeColor=inherit;fillColor=inherit;gradientColor=inherit;strokeWidth=1;shadow=0;dashed=0;align=center;html=1;shape=mxgraph.mockup.containers.rrect;rSize=0;fontSize=17;fontColor=#666666;fontStyle=1;resizeWidth=1;" parent="39" vertex="1">
                    <mxGeometry x="-2.2737367544323206e-13" y="428.91999999999996" width="100" height="26" as="geometry"/>
                </mxCell>
                <mxCell id="96" value="0x1" style="strokeColor=inherit;fillColor=inherit;gradientColor=inherit;strokeWidth=1;shadow=0;dashed=0;align=center;html=1;shape=mxgraph.mockup.containers.rrect;rSize=0;fontSize=17;fontColor=#666666;fontStyle=1;resizeWidth=1;" parent="39" vertex="1">
                    <mxGeometry x="-2.2737367544323206e-13" y="454.91999999999996" width="100" height="26" as="geometry"/>
                </mxCell>
                <mxCell id="97" value="0x0" style="strokeColor=inherit;fillColor=inherit;gradientColor=inherit;strokeWidth=1;shadow=0;dashed=0;align=center;html=1;shape=mxgraph.mockup.containers.rrect;rSize=0;fontSize=17;fontColor=#666666;fontStyle=1;resizeWidth=1;" parent="39" vertex="1">
                    <mxGeometry y="480.91999999999996" width="100" height="28.88888888888889" as="geometry"/>
                </mxCell>
                <mxCell id="98" value="0x0" style="strokeColor=inherit;fillColor=inherit;gradientColor=inherit;strokeWidth=1;shadow=0;dashed=0;align=center;html=1;shape=mxgraph.mockup.containers.rrect;rSize=0;fontSize=17;fontColor=#666666;fontStyle=1;resizeWidth=1;" parent="39" vertex="1">
                    <mxGeometry y="509.8088888888889" width="100" height="28.88888888888889" as="geometry"/>
                </mxCell>
                <mxCell id="99" value="0x0" style="strokeColor=inherit;fillColor=inherit;gradientColor=inherit;strokeWidth=1;shadow=0;dashed=0;align=center;html=1;shape=mxgraph.mockup.containers.rrect;rSize=0;fontSize=17;fontColor=#666666;fontStyle=1;resizeWidth=1;" parent="39" vertex="1">
                    <mxGeometry x="-2.2737367544323206e-13" y="538.6999999999999" width="100" height="26" as="geometry"/>
                </mxCell>
                <mxCell id="100" value="0x1" style="strokeColor=inherit;fillColor=inherit;gradientColor=inherit;strokeWidth=1;shadow=0;dashed=0;align=center;html=1;shape=mxgraph.mockup.containers.rrect;rSize=0;fontSize=17;fontColor=#666666;fontStyle=1;resizeWidth=1;" parent="39" vertex="1">
                    <mxGeometry x="-2.2737367544323206e-13" y="564.6999999999999" width="100" height="26" as="geometry"/>
                </mxCell>
                <mxCell id="46" value="" style="labelPosition=right;align=left;strokeWidth=1;shape=mxgraph.mockup.markup.curlyBrace;html=1;shadow=0;dashed=0;strokeColor=#999999;direction=north;fillColor=#000000;rotation=-180;" parent="1" vertex="1">
                    <mxGeometry x="318" y="192" width="30" height="111" as="geometry"/>
                </mxCell>
                <mxCell id="47" value="old ebp" style="text;html=1;align=center;verticalAlign=middle;resizable=0;points=[];autosize=1;" parent="1" vertex="1">
                    <mxGeometry x="345" y="230" width="50" height="20" as="geometry"/>
                </mxCell>
                <mxCell id="49" value="高地址" style="text;html=1;align=center;verticalAlign=middle;resizable=0;points=[];autosize=1;" parent="1" vertex="1">
                    <mxGeometry x="245" y="170" width="50" height="20" as="geometry"/>
                </mxCell>
                <mxCell id="50" value="" style="labelPosition=right;align=left;strokeWidth=1;shape=mxgraph.mockup.markup.curlyBrace;html=1;shadow=0;dashed=0;strokeColor=#999999;direction=north;fillColor=#000000;rotation=-180;" parent="1" vertex="1">
                    <mxGeometry x="320" y="303" width="30" height="476" as="geometry"/>
                </mxCell>
                <mxCell id="51" value="" style="endArrow=classic;html=1;" parent="1" edge="1">
                    <mxGeometry width="50" height="50" relative="1" as="geometry">
                        <mxPoint x="180" y="290" as="sourcePoint"/>
                        <mxPoint x="220" y="290.04643839712924" as="targetPoint"/>
                    </mxGeometry>
                </mxCell>
                <mxCell id="52" value="ebp" style="text;html=1;align=center;verticalAlign=middle;resizable=0;points=[];autosize=1;" parent="1" vertex="1">
                    <mxGeometry x="140" y="280" width="40" height="20" as="geometry"/>
                </mxCell>
                <mxCell id="59" value="ebp-0x10" style="text;html=1;align=center;verticalAlign=middle;resizable=0;points=[];autosize=1;" parent="1" vertex="1">
                    <mxGeometry x="130" y="541.14" width="70" height="20" as="geometry"/>
                </mxCell>
                <mxCell id="60" value="" style="labelPosition=right;align=left;strokeWidth=1;shape=mxgraph.mockup.markup.curlyBrace;html=1;shadow=0;dashed=0;strokeColor=#999999;direction=north;fillColor=#000000;" parent="1" vertex="1">
                    <mxGeometry x="200" y="455" width="20" height="105" as="geometry"/>
                </mxCell>
                <mxCell id="61" value="x.j" style="text;html=1;align=center;verticalAlign=middle;resizable=0;points=[];autosize=1;" parent="1" vertex="1">
                    <mxGeometry x="175" y="497.5" width="30" height="20" as="geometry"/>
                </mxCell>
                <mxCell id="92" value="" style="endArrow=classic;html=1;entryX=0.013;entryY=0.672;entryDx=0;entryDy=0;entryPerimeter=0;exitX=0.985;exitY=0.603;exitDx=0;exitDy=0;exitPerimeter=0;" parent="1" source="59" target="90" edge="1">
                    <mxGeometry width="50" height="50" relative="1" as="geometry">
                        <mxPoint x="330" y="380" as="sourcePoint"/>
                        <mxPoint x="380" y="330" as="targetPoint"/>
                    </mxGeometry>
                </mxCell>
                <mxCell id="101" value="24个字节" style="text;html=1;align=center;verticalAlign=middle;resizable=0;points=[];autosize=1;" parent="1" vertex="1">
                    <mxGeometry x="354" y="531" width="60" height="20" as="geometry"/>
                </mxCell>
                <mxCell id="102" value="" style="endArrow=classic;html=1;entryX=-0.009;entryY=0.569;entryDx=0;entryDy=0;entryPerimeter=0;" parent="1" target="96" edge="1">
                    <mxGeometry width="50" height="50" relative="1" as="geometry">
                        <mxPoint x="190" y="660" as="sourcePoint"/>
                        <mxPoint x="310" y="490" as="targetPoint"/>
                    </mxGeometry>
                </mxCell>
                <mxCell id="103" value="ebp-0x14" style="text;html=1;align=center;verticalAlign=middle;resizable=0;points=[];autosize=1;" parent="1" vertex="1">
                    <mxGeometry x="125" y="650" width="70" height="20" as="geometry"/>
                </mxCell>
                <mxCell id="104" value="ebp-0x18" style="text;html=1;align=center;verticalAlign=middle;resizable=0;points=[];autosize=1;" parent="1" vertex="1">
                    <mxGeometry x="125" y="762.7" width="70" height="20" as="geometry"/>
                </mxCell>
                <mxCell id="105" value="" style="endArrow=classic;html=1;entryX=-0.04;entryY=0.661;entryDx=0;entryDy=0;entryPerimeter=0;" parent="1" source="104" target="100" edge="1">
                    <mxGeometry width="50" height="50" relative="1" as="geometry">
                        <mxPoint x="260" y="740" as="sourcePoint"/>
                        <mxPoint x="310" y="690" as="targetPoint"/>
                    </mxGeometry>
                </mxCell>
                <mxCell id="106" value="" style="labelPosition=right;align=left;strokeWidth=1;shape=mxgraph.mockup.markup.curlyBrace;html=1;shadow=0;dashed=0;strokeColor=#999999;direction=north;fillColor=#000000;" parent="1" vertex="1">
                    <mxGeometry x="200" y="670.92" width="20" height="109.08" as="geometry"/>
                </mxCell>
                <mxCell id="107" value="" style="labelPosition=right;align=left;strokeWidth=1;shape=mxgraph.mockup.markup.curlyBrace;html=1;shadow=0;dashed=0;strokeColor=#999999;direction=north;fillColor=#000000;" parent="1" vertex="1">
                    <mxGeometry x="200" y="560" width="20" height="110.92" as="geometry"/>
                </mxCell>
                <mxCell id="108" value="x.c" style="text;html=1;align=center;verticalAlign=middle;resizable=0;points=[];autosize=1;" parent="1" vertex="1">
                    <mxGeometry x="165" y="605.46" width="30" height="20" as="geometry"/>
                </mxCell>
                <mxCell id="109" value="x.i" style="text;html=1;align=center;verticalAlign=middle;resizable=0;points=[];autosize=1;" parent="1" vertex="1">
                    <mxGeometry x="165" y="715.46" width="30" height="20" as="geometry"/>
                </mxCell>
                <mxCell id="112" value="低地址" style="text;html=1;align=center;verticalAlign=middle;resizable=0;points=[];autosize=1;" parent="1" vertex="1">
                    <mxGeometry x="245" y="820" width="50" height="20" as="geometry"/>
                </mxCell>
                <mxCell id="113" value="esp" style="text;html=1;align=center;verticalAlign=middle;resizable=0;points=[];autosize=1;" vertex="1" parent="1">
                    <mxGeometry x="355" y="759.7" width="30" height="20" as="geometry"/>
                </mxCell>
                <mxCell id="114" value="" style="endArrow=classic;html=1;entryX=0.993;entryY=0.742;entryDx=0;entryDy=0;entryPerimeter=0;exitX=-0.011;exitY=0.465;exitDx=0;exitDy=0;exitPerimeter=0;" edge="1" parent="1" source="113">
                    <mxGeometry width="50" height="50" relative="1" as="geometry">
                        <mxPoint x="360" y="769" as="sourcePoint"/>
                        <mxPoint x="319.2999999999997" y="768.9919999999997" as="targetPoint"/>
                    </mxGeometry>
                </mxCell>
            </root>
        </mxGraphModel>
    </diagram>
</mxfile>